<?xml version="1.0" encoding="UTF-8"?>
<svg data-bbox="7.5 42.91 484.03 446.09" viewBox="0 0 500 500" height="500" width="500" xmlns="http://www.w3.org/2000/svg" data-type="ugc">
    <g>
        <path fill="rgba(86,86,86,1)" d="M12.72 43h.34l1.07.27.58.17 1.42.55 4.72 2.39.39.23.98.58.52.32 1.21.72 1.26.74 3.01 1.79 9.78 5.8 1.58.93 3.44 2.04 1.73 1.02 3.43 2.04 1.67.99 3.02 1.79.71.42 1.28.76 1.64.98.48.28 1.27.75.69.41 1.62.95.85.5 1.91 1.12.99.57 2.13 1.25 2.17 1.27 4.74 2.75 7.15 4.16 1.17.67 2.79 1.62 1.46.86 3.29 1.91 1.69.99 3.67 2.14 1.86 1.09 3.92 2.3 3.96 2.32 8.19 4.8 11.71 6.9 1.84 1.08 4.12 2.42 2.12 1.25 4.57 2.69 2.32 1.36 4.88 2.86 2.45 1.44 5.03 2.94 5.03 2.94 9.86 5.76 2.4 1.4 4.56 2.65 6.32 3.68 1.98 1.15 4.54 2.64 2.36 1.37 5.15 3.01 2.64 1.54 5.59 3.27 2.84 1.65 5.85 3.43 5.89 3.44 11.79 6.92 2.89 1.7 5.57 3.27 7.85 4.62 5.19 3.06 10.71 6.3 5.4 3.18 10.94 6.42 5.47 3.22 10.92 6.4 5.42 3.18 10.64 6.23 5.26 3.08 10.1 5.91 4.97 2.9 9.33 5.45 2.27 1.33 4.36 2.53 2.14 1.25 4.08 2.38 2 1.16 3.77 2.19 5.26 3.05 2.53 1.47 5.01 3.04 2.46 1.51 4.48 2.87 1.07.7 1.94 1.29.94.64 1.63 1.14.77.55 1.27.94 1.4 1.15 5.12 4.64.34 79.36.02 5.46.04 10.69.01 5.29.01 10.19v5l-.01 9.43v2.29l-.01 4.41-.01 2.17-.01 4.14-.01 2.03-.02 3.83-.01 1.88-.02 3.5-.01 1.7-.03 3.13-.02 1.52-.03 2.73-.01 1.32-.04 2.31-.02 1.09-.04 1.85-.02.87-.04 1.36-.07 1.46-.1 1.52-.22 2.56-.12 1.22-.33 2.05-.18.97-.5 1.67-.28.8-.76 1.41-.41.69-1.1 1.29-.6.65-1.51 1.3-.82.67-2 1.44-3.66 2.47-1.04.68-2.3 1.49-1.19.76-2.55 1.61-2.6 1.64-5.72 3.52-5.82 3.56-12.01 7.1-2.88 1.69-5.33 3.05-1.27.73-2.38 1.34-1.15.64-2.08 1.15-1.01.55-1.74.93-.82.43-1.35.68-.62.31-.9.4-.79.24h-.64l-1.3-.6-.61-.37-.84-1.1-.05-.09-.09-.48-.05-.29-.09-.88-.04-.5-.09-1.29-.04-.7-.09-1.72-.04-.91-.09-2.14-.04-1.12-.08-2.58-.04-1.34-.08-3.01-.04-1.56-.08-3.45-.04-1.79-.08-3.9-.04-2.01-.07-4.36-.04-2.24-.08-4.83-.03-2.47-.08-5.3-.03-2.7-.07-5.78-.04-2.94-.07-6.26-.04-3.19-.07-6.74-.1-10.68-.06-5.86-.12-11.28-.06-5.56-.13-10.5-.03-2.57-.07-4.94-.03-2.44-.07-4.66-.03-2.3-.07-4.36-.03-2.14-.07-4.02-.03-1.96-.07-3.66-.03-1.78-.07-3.26-.03-1.57-.06-2.84-.04-1.36-.06-2.38-.03-1.13-.05-1.89-.03-.88-.06-1.38-.03-.62-.05-.83-.07-.61-.09-.22-.38-.56-.22-.29-.57-.64-2.11-1.88-.16-.11-.69-.46-.41-.26-1.17-.73-.65-.4-1.61-.98-.86-.52-2.02-1.22-1.05-.64-2.39-1.43-1.23-.73-2.72-1.62-1.4-.84-3.01-1.79-1.54-.91-3.28-1.94-3.33-1.97-7.29-4.29-3.72-2.19-7.86-4.61-24.31-14.17-2.47-1.43-5.63-3.27-2.91-1.7-6.41-3.73-3.28-1.91-7.03-4.09-3.57-2.09-7.49-4.37-3.79-2.21-7.81-4.57-3.93-2.29-7.97-4.66-7.98-4.66-15.8-9.25-3.88-2.27-7.54-4.42-3.71-2.17-7.08-4.16-3.47-2.03-6.48-3.8-3.15-1.85-5.72-3.36-1.38-.81-2.58-1.52-1.26-.74-2.34-1.38-1.14-.67-2.08-1.23-1-.59-1.8-1.06-.86-.51-1.5-.89-.71-.42-1.18-.7-.54-.33-.84-.5-.86-.53-.99-.61-1.89-1.23-.92-.6-1.62-1.12-.76-.53-1.17-.88-1.03-.92-.33-.39-.08-.07.02.01 1.68.81 1.02.53 2.16 1.16 1.29.73 2.71 1.55 1.6.94 3.35 1.98 1.94 1.16 5.98 3.57 2.14 1.27 1.14.68 2.34 1.38 1.27.75 2.62 1.55 1.43.84 2.96 1.74 1.64.96 3.37 1.98 1.87 1.1 3.86 2.26 2.14 1.25 4.42 2.59 2.44 1.43 5.05 2.95 2.78 1.62 5.75 3.36 3.15 1.84 6.52 3.8 3.57 2.09 7.35 4.29 4.02 2.34 4.07 2.37 2.13 1.24 4.31 2.52 2.25 1.31 4.56 2.66 2.37 1.38 4.82 2.81 2.51 1.46 5.08 2.97 2.64 1.54 5.36 3.12 2.78 1.62 8.79 5.13 5.57 3.24 2.65 1.54 5.19 3.03 2.46 1.44 4.84 2.82 2.29 1.33 4.49 2.62 2.12 1.24 4.15 2.42 1.96 1.15 3.84 2.24 1.8 1.05 3.53 2.07 1.65.97 3.24 1.89 1.51.89 2.96 1.74 1.37.81 2.69 1.59 1.25.74 2.44 1.44 1.12.67 4.28 2.55 1.8 1.09 3.41 2.07 1.42.87 2.65 1.66 1.07.69 2 1.3.79.55 1.45 1.02.56.43 1.01.8.38.34 1.21 1.24.36.56.64 1.1.4.68.15.53.1.63.05.45.09.99.04.64.09 1.38.04.84.09 1.78.03 1.05.08 2.2.04 1.26.07 2.64.04 1.49.07 3.08.03 1.72.06 3.55.04 1.96.06 4.03.03 2.2.06 4.53.02 2.46.06 5.05.03 2.72.05 5.58.02 2.99.05 6.12.03 3.27.05 6.69.02 3.55.05 7.27.02 3.85.12 17 .09 10.83.05 5.08.05 5.02.03 2.41.05 4.76.03 2.27.05 4.47.03 2.12.06 4.14.03 1.95.06 3.79.03 1.76.06 3.41.03 1.56.06 3.01.03 1.34.06 2.57.04 1.11.06 2.1.03.86.06 1.61.03.6.06 1.08.02.33.06.53.03.04.49.67.34.2.75.29.55-.03 1.25-.2.9-.32.95-.37.55-.25 1.18-.53.68-.34 1.42-.73.82-.44 1.71-.93.97-.55 2.03-1.14 1.14-.67 2.38-1.38 1.33-.78 2.75-1.63 1.52-.92 3.16-1.89 1.74-1.06 3.6-2.17 1.97-1.2 4.07-2.47 2.22-1.35 3.78-2.31 2.32-1.42 1.06-.65 2.07-1.28.94-.59 1.83-1.15.83-.53 3.12-2 1.27-.85 2.37-1.62.94-.69 1.74-1.33.69-.59 1.26-1.15.49-.53 1.67-2.09.63-1.15.52-1.4.15-.67.07-.43.13-.91.06-.57.11-1.23.05-.76.1-1.61.04-.97.08-2.05.04-1.22.06-2.57.03-1.5.06-3.15.02-1.81.04-3.8.02-2.17.03-4.51.01-2.54.03-5.3.01-2.96.01-6.14.01-3.41v-7.06l.01-3.89v-62.26l-.01-2.08v-4.08l-.01-1.92v-3.76l-.01-1.76-.01-3.45-.01-1.62-.02-3.17-.02-1.47-.02-2.89-.02-1.34-.07-5.12-.05-2.19-.12-4.17-.07-1.76-.16-3.32-.1-1.38-.21-2.59-.14-1.06-.27-1.97-.17-.8-.35-1.47-.2-.58-.43-1.08-.25-.43-1.08-1.46-.69-.59-1.49-1.14-.92-.75-1.03-.76-.98-.68-.62-.41-1.33-.86-.77-.49-1.61-1.02-.9-.56-3.8-2.34-2.13-1.27-4.36-2.59-2.24-1.3-7.28-4.23-5.2-3.04-2.56-1.5-5.06-2.97-2.26-1.33-2.21-1.31-1-.59-1.92-1.14-.82-.49-2.85-1.69-2.24-1.33-1.27-.74-2.61-1.54-1.41-.84-2.89-1.69-1.52-.89-6.24-3.66-3.18-1.85-6.33-3.7-2.96-1.71-2.42-1.41-1.8-1.05-1-.58-4.2-2.45-2.4-1.4-4.99-2.92-2.73-1.59-5.6-3.28-2.97-1.74-6.03-3.53-3.12-1.83-6.28-3.68-3.18-1.86-12.73-7.47-6.05-3.56-18.66-10.96-6.26-3.67-3.06-1.8-6.07-3.55-2.9-1.7-5.7-3.34-2.65-1.55-5.15-3.01-2.31-1.36-4.44-2.59-1.88-1.1-1.83-1.07-.82-.47-1.58-.92-.69-.4-4.57-2.66-3.45-2.01-1.88-1.1-3.85-2.25-2.04-1.19-4.14-2.42-2.13-1.24-8.64-5.05-4.24-2.49-4.21-2.46-2.02-1.19-3.97-2.33-1.86-1.09-10.88-6.38-6.89-4.05-3.27-1.92-6.42-3.77L95 91.6l-5.97-3.51-2.83-1.65-5.53-3.25-2.61-1.53-5.12-3-2.41-1.41-4.72-2.77-2.21-1.29-4.34-2.54-2.02-1.19-3.97-2.32-1.85-1.08-3.62-2.11-1.68-.98-3.28-1.9-1.52-.89-2.97-1.72-1.37-.79-2.66-1.54-1.23-.7-2.38-1.37-1.09-.62-2.12-1.21-.96-.54-1.87-1.05-.84-.47-3.15-1.75-1.27-.68-2.34-1.24-.9-.46-1.66-.8-.62-.27-1.11-.45-.4-.11-.7-.17h-.24l-.42.04-.16.08-.5.4-.36.23-.23.4-.15.56-.06.46-.13 1.05-.06.75-.11 1.65-.05 1.08-.1 2.35-.04 1.48-.09 3.17-.04 1.92-.07 4.09-.03 2.43-.03 2.49-.02 1.35-.02 2.76-.02 1.49-.02 3.06-.01 1.64-.03 3.35-.01 1.8-.02 3.67-.01 1.95-.02 4v2.13l-.02 4.34-.01 2.3-.01 4.69-.01 2.49-.01 5.06-.01 2.68-.01 5.44v2.87l-.01 5.84v3.08l-.01 6.25-.01 3.28v10.17l-.01 7.11v15.23l-.01 8.02V385.5l2.18 3.5 1.18 1.68.96 1.12.61.61 1.35 1.26.87.72 1.89 1.5 1.21.89 2.61 1.88 1.63 1.13 1.69 1.15.94.63 1.93 1.3 1.07.7 2.2 1.46 1.2.79 2.49 1.62 1.36.89 2.8 1.81 1.51.99 3.13 2.01 1.69 1.09 5.11 3.29 3.1 1.99 1.41.9 2.73 1.74 1.23.78 2.38 1.5 1.07.66 2.05 1.28.92.55 1.75 1.06.78.46 1.49.86.65.36 1.24.68.54.27 1.95.92.71.23 1.26.33.45-.03.8-.16.29-.23.54-.54.24-.38.09-.79.05-1.17.03-.89.06-1.98.03-1.29.06-2.76.03-1.65.07-3.49.03-2 .06-4.17.03-2.32.06-4.81.03-2.63.06-5.41.03-2.91.06-5.96.03-3.17.05-6.47.03-3.41.06-6.94.02-3.62.06-7.36.02-3.82.05-7.73.03-3.99.04-8.06.02-4.14.09-16.85.03-8.75.04-10.01.03-6.41.01-3.07.02-6.07.02-2.91.02-5.73.02-2.75.02-5.41.01-2.58.03-5.1.01-2.43.03-4.79.01-2.28.03-4.49.01-2.14.03-4.2.01-2 .03-3.92.01-1.86.06-7.17.03-3.21.06-6.16.03-2.72.06-5.22.04-2.28.07-4.35.04-1.87.07-3.56.05-1.5.08-2.83.05-1.17.1-2.18.05-.87.1-1.61.06-.61.12-1.1.06-.39.13-.67.07-.2.15-.31.08-.05.86-.31.7-.05.44.07.95.2.44.15-.53.28-.16.17-.29.57-.14.33-.25 1-.12.57-.21 1.55-.11.85-.18 2.22-.09 1.2-.16 3-.07 1.61-.13 3.91-.03 1.04-.06 2.27-.03 1.16-.06 2.54-.02 1.3-.05 2.81-.03 1.45-.04 3.11-.02 1.59-.05 3.42-.02 1.76-.04 3.74-.02 1.92-.03 4.09-.02 2.09-.04 4.44-.01 2.27-.04 4.81-.01 2.46-.03 5.2-.02 2.65-.03 5.6-.01 2.85-.03 6.01-.02 3.06-.03 6.45-.02 3.27-.03 6.89-.01 3.5-.03 7.35-.05 11.55-.04 8.63-.09 16.62-.02 4.08-.05 7.96-.02 3.94-.06 7.64-.02 3.77-.06 7.27-.02 3.58-.06 6.85-.03 3.38-.06 6.39-.03 3.14-.06 5.9-.03 2.88-.07 5.36-.03 2.61-.06 4.77-.03 2.31-.07 4.14-.03 1.99-.06 3.46-.03 1.65-.06 2.75-.04 1.28-.06 1.99-.03.9-.06 1.19-.08.83-.23.48-1.03.93-1.88.93-.3.07-.75-.01-.41-.05-1.14-.38-.63-.24-1.77-.88-.49-.25-1.14-.63-.6-.34-1.39-.8-.72-.42-1.66-1-.86-.52-1.96-1.2-1.01-.63-2.29-1.43-1.18-.74-2.65-1.67-1.37-.87-3.04-1.93-1.56-1-3.46-2.21-1.78-1.14-3.91-2.51-6.4-4.11-1.25-.8-2.3-1.49-1.12-.72-2.04-1.33-1-.64-1.8-1.18-.88-.58-1.59-1.05-1.53-1.03-2.49-1.72-1.16-.81-1.83-1.38-.85-.65-1.32-1.15-.61-.55-.95-1.02-2.13-3.11-.09-.17-.17-.51-.09-.29-.15-.84-.08-.48-.13-1.31-.07-.72-.12-1.9-.05-1.03-.1-2.62-.05-1.41-.09-3.46-.04-1.85-.07-4.44-.02-1.18-.03-2.56-.01-1.31-.03-2.85-.02-1.46-.02-3.15-.02-1.62-.02-3.47-.01-1.78-.02-3.81-.01-1.94-.02-4.16-.01-2.13-.01-4.53-.01-2.31-.01-4.91-.01-2.51-.01-5.31-.01-2.71-.01-5.73v-2.91l-.01-6.17v-3.13l-.01-6.61v-3.36l-.01-7.08v-14.99l-.01-8.05v-117.1l.01-7.54v-3.69l.01-6.94v-3.4l.02-6.36v-3.11l.02-5.8.01-2.84.03-5.28.01-2.57.03-4.78.01-2.32.04-4.3.02-2.09.05-3.85.02-1.86.05-3.42.03-1.66.07-3.01.03-1.46.07-2.63.04-1.28.09-2.28.04-1.1.1-1.95.05-.94.11-1.65.05-.79.13-1.37.12-1.31.3-1.89.15-.84.36-1.1.19-.47.42-.52.23-.2.5-.13M164 248.04h.39l1.27.33.72.23 1.95.79 1.05.45 2.64 1.25 1.4.69 3.35 1.73 1.76.92 4.07 2.21 2.13 1.17 4.82 2.71 2.5 1.41 5.59 3.21 9.26 5.39 1.96 1.15 3.45 2.05 1.65.99 2.88 1.75 1.37.84 2.36 1.5 1.12.72 1.9 1.27.9.61 1.49 1.1.7.52 1.14.95.53.46.85.84 1 1.18 2.88 3.96-.29 96.13-.01 3.22-.02 6.13-.01 3.01-.01 5.72-.01 2.82-.02 5.34-.01 2.62-.01 4.97-.01 2.44-.02 4.61-.01 2.26-.02 4.27-.01 2.09-.02 3.93-.01 1.93-.03 3.61-.01 1.77-.03 3.31-.02 1.62-.03 3.01-.02 1.48-.04 2.74-.02 1.33-.04 2.48-.05 2.41-.11 4.08-.06 1.93-.15 3.2-.08 1.5-.18 2.42-.1 1.13-.23 1.75-.12.8-.28 1.19-.14.53-.34.74-.17.32-.39.38-.21.16-.46.15-1.65.05h-.15l-.56-.17-.31-.1-.87-.36-.47-.2-1.14-.53-.6-.29-1.37-.68-1.42-.72-3.33-1.8-1.72-.94-3.69-2.13-1.86-1.08-4.25-2.47-2.18-1.26-4.49-2.59-2.22-1.27-4.19-2.39-1.01-.57-1.85-1.05-2.5-1.41-2.02-1.13-3.68-2.12-1.78-1.04-3.22-1.93-1.55-.95-2.76-1.77-1.33-.86-2.31-1.6-1.11-.78-1.89-1.44-.89-.7-1.47-1.3-.69-.63-1.06-1.15-1.16-1.59-.25-.43-.41-.95-.1-.28-.17-.69-.08-.38-.15-.96-.07-.52-.13-1.33-.06-.71-.1-1.78-.05-.96-.09-2.33-.04-1.24-.07-2.97-.03-1.57-.05-3.7-.03-1.95-.04-4.53-.01-2.38-.03-5.45-.02-2.85-.01-6.46-.01-1.68-.01-3.58v-5.67l-.01-1.97v-10.73l-.01-2.27v-76.75l.01-2.09.01-3.93v-1.92l.01-3.59.01-1.76.02-3.27.01-1.6.02-2.98.01-1.45.04-2.69.01-1.31.04-2.42.04-2.35.11-3.95.06-1.86.15-3.04.08-1.43.19-2.26.11-1.04.25-1.58.13-.73.31-1.03.16-.45.38-.59.2-.25.45-.26.23-.1.54-.05m1.93 2.3-.65.27-.23.25-.39.58-.11.4-.09.79-.07.97-.03.69-.06 1.53-.03.96-.05 2.05-.03 1.2-.06 2.54-.03 1.43-.05 2.97-.03 1.65-.05 3.38-.03 1.83-.05 3.75-.02 2-.05 4.09-.03 2.15-.04 4.38-.03 2.28-.08 9.39-.04 4.98-.07 10.15-.03 5.25-.06 10.6-.03 5.36-.04 10.75-.02 5.33-.03 10.6-.01 5.14-.01 10.14v4.8l.01 9.39.01 4.31.01 4.23.01 2 .02 3.92.01 1.84.02 3.57.02 1.64.03 3.19.01 1.43.04 2.76.02 1.21.04 2.29.02.96.05 1.8.02.69.06 1.26.03.41.27 3.66.18 2.11.09.91.18 1.72.1.72.19 1.37.11.58.44 2.01.28.68.59 1.18.38.42 1.3 1.1 1.47 1.06 1.04.68 2.29 1.49 1.45.92 3.13 1.93 1.88 1.14 3.98 2.4 2.32 1.37 4.85 2.87 2.77 1.61 5.75 3.35 3.22 1.86 6.66 3.85 3.68 2.11 4.31 2.45 1.97 1.09 3.76 2.07 1.56.83 1.49.79.63.33 1.2.61.48.23.87.41.29.12.49.19h.08l1.31-.16.37-.22.16-.2.32-.46.14-.36.27-.8.11-.57.23-1.24.09-.81.19-1.77.07-1.11.15-2.39.06-1.46.12-3.11.05-1.85.08-3.91.04-2.29.06-4.81.02-2.77.03-2.84.01-1.52.01-3.1.01-1.66.02-3.37v-1.8l.01-3.66.01-1.94v-3.96l.01-2.1v-6.53l.01-4.59V390.1l-.02-18.32-.03-11.76-.02-5.57-.02-5.5-.01-2.66-.03-5.25-.01-2.52-.04-4.96-.01-2.36-.04-4.64-.02-2.18-.04-4.28-.02-2-.04-3.89-.02-1.79-.05-3.47-.02-1.57-.05-3.02-.02-1.32-.06-2.53-.02-1.07-.06-2.01-.02-.8-.06-1.46-.03-.5-.05-.87-.03-.21-.44-2.54-.37-1.47-.27-.65-.6-1.28-.43-.61-.96-1.2-.65-.62-1.43-1.25-.94-.69-2.03-1.41-1.29-.81-2.76-1.7-1.7-1-1.76-1.02-.96-.55-1.98-1.14-1.09-.62-3.02-1.73-2.21-1.27-1.19-.68-4.93-2.83-2.57-1.48-5.18-2.99-2.48-1.42-2.44-1.41-1.15-.67-2.25-1.3-1.02-.59-5.16-2.94-2.95-1.63-1.25-.65-2.36-1.21-.99-.45-1.83-.8-.75-.26-1.38-.42-.53-.08-.99-.06Z"/>
        <path fill="rgba(155,155,155,1)" d="m11.68 44.24.7.17.4.11 1.11.45.62.27 1.66.8.9.46 2.34 1.24 1.27.68 3.15 1.75.84.47 1.87 1.05.96.54 2.12 1.21 1.09.62 2.38 1.37 1.23.7 2.66 1.54 1.37.79 2.97 1.72 1.52.89 3.28 1.9 1.68.98 3.62 2.11 1.85 1.08 3.97 2.32 2.02 1.19 4.34 2.54 2.21 1.29 4.72 2.77 2.41 1.41 5.12 3 2.61 1.53 5.53 3.25 2.83 1.65L95 91.6l3.04 1.78 6.42 3.77 3.27 1.92 6.89 4.05 10.88 6.38 1.86 1.09 3.97 2.33 2.02 1.19 4.21 2.46 4.24 2.49 8.64 5.05 2.13 1.24 4.14 2.42 2.04 1.19 3.85 2.25 1.88 1.1 3.45 2.01 4.57 2.66.69.4 1.58.92.82.47 1.83 1.07 1.88 1.1 4.44 2.59 2.31 1.36 5.15 3.01 2.65 1.55 5.7 3.34 2.9 1.7 6.07 3.55 3.06 1.8 6.26 3.67 18.66 10.96 6.05 3.56 12.73 7.47 3.18 1.86 6.28 3.68 3.12 1.83 6.03 3.53 2.97 1.74 5.6 3.28 2.73 1.59 4.99 2.92 2.4 1.4 4.2 2.45 1 .58 1.8 1.05 2.42 1.41 2.96 1.71 6.33 3.7 3.18 1.85 6.24 3.66 1.52.89 2.89 1.69 1.41.84 2.61 1.54 1.27.74 2.24 1.33 2.85 1.69.82.49 1.92 1.14 1 .59 2.21 1.31 2.26 1.33 5.06 2.97 2.56 1.5 5.2 3.04 7.28 4.23 2.24 1.3 4.36 2.59 2.13 1.27 3.8 2.34.9.56 1.61 1.02.77.49 1.33.86.62.41.98.68 1.03.76.92.75 1.49 1.14.69.59 1.08 1.46.25.43.43 1.08.2.58.35 1.47.17.8.27 1.97.14 1.06.21 2.59.1 1.38.16 3.32.07 1.76.12 4.17.05 2.19.07 5.12.02 1.34.02 2.89.02 1.47.02 3.17.01 1.62.01 3.45.01 1.76v3.76l.01 1.92v4.08l.01 2.08V383l-.01 3.89v7.06l-.01 3.41-.01 6.14-.01 2.96-.03 5.3-.01 2.54-.03 4.51-.02 2.17-.04 3.8-.02 1.81-.06 3.15-.03 1.5-.06 2.57-.04 1.22-.08 2.05-.04.97-.1 1.61-.05.76-.11 1.23-.06.57-.13.91-.07.43-.15.67-.52 1.4-.63 1.15-1.67 2.09-.49.53-1.26 1.15-.69.59-1.74 1.33-.94.69-2.37 1.62-1.27.85-3.12 2-.83.53-1.83 1.15-.94.59-2.07 1.28-1.06.65-2.32 1.42-3.78 2.31-2.22 1.35-4.07 2.47-1.97 1.2-3.6 2.17-1.74 1.06-3.16 1.89-1.52.92-2.75 1.63-1.33.78-2.38 1.38-1.14.67-2.03 1.14-.97.55-1.71.93-.82.44-1.42.73-.68.34-1.18.53-.55.25-.95.37-.9.32-1.25.2-.55.03-.75-.29-.34-.2-.49-.67-.03-.04-.06-.53-.02-.33-.06-1.08-.03-.6-.06-1.61-.03-.86-.06-2.1-.04-1.11-.06-2.57-.03-1.34-.06-3.01-.03-1.56-.06-3.41-.03-1.76-.06-3.79-.03-1.95-.06-4.14-.03-2.12-.05-4.47-.03-2.27-.05-4.76-.03-2.41-.05-5.02-.05-5.08-.09-10.83-.12-17-.02-3.85-.05-7.27-.02-3.55-.05-6.69-.03-3.27-.05-6.12-.02-2.99-.05-5.58-.03-2.72-.06-5.05-.02-2.46-.06-4.53-.03-2.2-.06-4.03-.04-1.96-.06-3.55-.03-1.72-.07-3.08-.04-1.49-.07-2.64-.04-1.26-.08-2.2-.03-1.05-.09-1.78-.04-.84-.09-1.38-.04-.64-.09-.99-.05-.45-.1-.63-.15-.53-.4-.68-.64-1.1-.36-.56-1.21-1.24-.38-.34-1.01-.8-.56-.43-1.45-1.02-.79-.55-2-1.3-1.07-.69-2.65-1.66-1.42-.87-3.41-2.07-1.8-1.09-4.28-2.55-1.12-.67-2.44-1.44-1.25-.74-2.69-1.59-1.37-.81-2.96-1.74-1.51-.89-3.24-1.89-1.65-.97-3.53-2.07-1.8-1.05-3.84-2.24-1.96-1.15-4.15-2.42-2.12-1.24-4.49-2.62-2.29-1.33-4.84-2.82-2.46-1.44-5.19-3.03-2.65-1.54-5.57-3.24-8.79-5.13-2.78-1.62-5.36-3.12-2.64-1.54-5.08-2.97-2.51-1.46-4.82-2.81-2.37-1.38-4.56-2.66-2.25-1.31-4.31-2.52-2.13-1.24-4.07-2.37-4.02-2.34-7.35-4.29-3.57-2.09-6.52-3.8-3.15-1.84-5.75-3.36-2.78-1.62-5.05-2.95-2.44-1.43-4.42-2.59-2.14-1.25-3.86-2.26-1.87-1.1-3.37-1.98-1.64-.96-2.96-1.74-1.43-.84-2.62-1.55-1.27-.75-2.34-1.38-1.14-.68-2.14-1.27-5.98-3.57-1.94-1.16-3.35-1.98-1.6-.94-2.71-1.55-1.29-.73-2.16-1.16-1.02-.53-1.68-.81-.78-.36-1.28-.49-.6-.2-.95-.2-.44-.07-.7.05-.86.31-.08.05-.15.31-.07.2-.13.67-.06.39-.12 1.1-.06.61-.1 1.61-.05.87-.1 2.18-.05 1.17-.08 2.83-.05 1.5-.07 3.56-.04 1.87-.07 4.35-.04 2.28-.06 5.22-.03 2.72-.06 6.16-.03 3.21-.06 7.17-.01 1.86-.03 3.92-.01 2-.03 4.2-.01 2.14-.03 4.49-.01 2.28-.03 4.79-.01 2.43-.03 5.1-.01 2.58-.02 5.41-.02 2.75-.02 5.73-.02 2.91-.02 6.07-.01 3.07-.03 6.41-.04 10.01-.03 8.75-.09 16.85-.02 4.14-.04 8.06-.03 3.99-.05 7.73-.02 3.82-.06 7.36-.02 3.62-.06 6.94-.03 3.41-.05 6.47-.03 3.17-.06 5.96-.03 2.91-.06 5.41-.03 2.63-.06 4.81-.03 2.32-.06 4.17-.03 2-.07 3.49-.03 1.65-.06 2.76-.03 1.29-.06 1.98-.03.89-.05 1.17-.09.79-.24.38-.54.54-.29.23-.8.16-.45.03-1.26-.33-.71-.23-1.95-.92-.54-.27-1.24-.68-.65-.36-1.49-.86-.78-.46-1.75-1.06-.92-.55-2.05-1.28-1.07-.66-2.38-1.5-1.23-.78-2.73-1.74-1.41-.9-3.1-1.99-5.11-3.29-1.69-1.09-3.13-2.01-1.51-.99-2.8-1.81-1.36-.89-2.49-1.62-1.2-.79-2.2-1.46-1.07-.7-1.93-1.3-.94-.63-1.69-1.15-1.63-1.13-2.61-1.88-1.21-.89-1.89-1.5-.87-.72-1.35-1.26-.61-.61-.96-1.12-1.18-1.68-2.18-3.5V184.92l.01-8.02v-15.23l.01-7.11v-10.17l.01-3.28.01-6.25v-3.08l.01-5.84v-2.87l.01-5.44.01-2.68.01-5.06.01-2.49.01-4.69.01-2.3.02-4.34v-2.13l.02-4 .01-1.95.02-3.67.01-1.8.03-3.35.01-1.64.02-3.06.02-1.49.02-2.76.02-1.35.03-2.49.03-2.43.07-4.09.04-1.92.09-3.17.04-1.48.1-2.35.05-1.08.11-1.65.06-.75.13-1.05.06-.46.15-.56.23-.4.36-.23.5-.4.16-.08.42-.04m.72 1.97-.85.55-.45.81-.19.7-.35 1.61-.16 1.19-.16 1.26-.08.74-.16 1.55-.08.89-.06.9-.04.82-.02.51-.07 2.31-.03 1.55-.06 3.34-.03 2.04-.05 4.31-.02 2.49-.05 5.19-.01 2.91-.04 6.01-.01 3.28-.03 6.75-.01 3.62-.02 7.41-.01 3.93-.01 8v30.72l.01 9.33.01 4.78.04 19.38.03 9.95.06 20.04.04 10.06.08 20.1.05 9.87.05 9.83.03 4.83.05 9.6.03 4.7.06 9.3.03 4.52.06 8.93.04 4.3.06 8.48.04 4.05.07 7.96.03 3.76.08 7.37.03 3.43.08 6.7.04 3.07.08 5.95.04 2.68.08 5.13.04 2.24.08 4.24.04 1.76.09 3.28.04 1.25.04 1.19.03.49.04.91.02.35.04.64.03.2.04.35.02.05.88 1.59.95 1.2.7.69 1.53 1.47 1.02.85 2.22 1.8 1.4 1.05 2.99 2.21 1.82 1.28 1.88 1.31 1.02.7 2.11 1.45 1.15.77 2.35 1.58 1.27.85 2.61 1.73 1.41.92 2.88 1.89 1.54 1.01 3.16 2.06 1.69 1.09 3.76 2.43 2.34 1.51 1.09.7 4.15 2.65 1.78 1.13 3.36 2.11 1.42.87 2.64 1.61 1.08.63 2 1.16.79.41 1.42.74.52.22.92.36.29.05.48.02.1-.1.15-.69.09-1 .05-.78.09-1.75.05-1.16.09-2.51.05-1.54.09-3.28.04-1.93.09-4.07.05-2.34.08-4.87.05-2.74.09-5.69.04-3.15.09-6.52.04-3.58.09-7.37.04-4 .09-8.23.04-4.44.09-9.11.04-4.89.09-9.99.05-5.34.09-10.91.04-5.79.09-11.83.04-6.26.1-12.76.04-6.74.07-9.68.04-6.14.02-2.92.04-5.74.02-2.72.03-5.35.02-2.53.04-4.96.02-2.35.03-4.6.02-2.17.04-4.26.02-2 .04-3.91.02-1.84.04-3.59.02-1.68.04-3.29.03-1.53.04-2.99.03-1.39.05-2.71.03-1.25.12-4.76.06-2 .14-3.78.09-1.57.17-2.92.1-1.17.21-2.17.12-.84.25-1.53.14-.56.3-1 .17-.34.36-.58.19-.17.42-.27.23-.06.99-.07h.61l1.19.25 1.09.39.65.29 2.79 1.37 1.41.87 2.42 1.48 1.84 1.12.96.58 1.93 1.15.92.54 1.78 1.05.76.44 1.69.98 1.34.78.77.45 1.62.94.91.53 1.88 1.09 1.03.6 2.12 1.24 1.15.67 2.35 1.37 1.26.73 5.24 3.06 2.9 1.69 5.99 3.5 3.24 1.89 6.62 3.86 3.51 2.05 7.14 4.16 3.71 2.18 7.52 4.39 3.87 2.26 15.7 9.17 7.96 4.65 15.92 9.31 7.71 4.51 7.65 4.47 3.7 2.16 7.31 4.28 3.49 2.04 6.85 4.01 3.21 1.88 6.27 3.67 2.87 1.68 5.69 3.33 3.6 2.11 1.72 1.01 6.63 3.88 2.98 1.75 5.74 3.37 2.57 1.51 4.92 2.91 2.19 1.29 4.17 2.49 1.84 1.09 3.49 2.11 1.52.92 2.88 1.78 1.24.77 2.34 1.48.98.65 1.86 1.23.77.54 1.44 1.03.59.46 1.1.87.44.39.82.76.33.35 1.12 1.35.41.68.75 1.38.41.82.63 1.5.34 1.31.14 1.01.13 1.09.06.67.11 1.44.05.88.09 1.86.04 1.12.07 2.36.03 1.4.06 2.94.03 1.72.04 3.6.02 2.07.03 4.33.02 2.47.02 5.14.01 2.9.02 6.03v3.37l.01 6.99v3.88l.01 3.95v22.67l.01 16.66.03 10.6.01 4.97.02 4.91.01 2.36.02 4.65.01 2.22.03 4.36.01 2.06.03 4.05.02 1.89.03 3.7.01 1.7.04 3.33.01 1.51.04 2.92.02 1.3.04 2.48.02 1.08.04 2.02.02.83.04 1.54.02.58.05 1.02.02.31.04.47.03.02 1.05.67h.48l1.08-.28 1.14-.46.77-.36 1.65-.81 1.01-.52 2.14-1.13 1.24-.68 2.57-1.43 1.44-.82 2.98-1.71 1.63-.95 3.34-1.96 1.79-1.08 3.66-2.2 1.94-1.19 6.65-4.05 4.37-2.65 1.99-1.2 1.94-1.17.89-.54 1.73-1.04.76-.46 1.46-.87.6-.36 1.12-.66.41-.24 5.34-3.53 1.73-1.28.75-.6 1.41-1.16.52-.49 3.75-3.53V267.66l-4.32-4.08-2.11-1.83-1.65-1.32-.89-.65-1.78-1.29-.87-.58-1.7-1.1-.75-.43-3.84-2.21-2.92-1.69-1.63-.94-3.36-1.94-1.81-1.05-3.71-2.15-1.97-1.14-8.14-4.73-4.35-2.52-8.82-5.13-4.48-2.61-8.95-5.21-4.34-2.53-8.54-4.98-3.92-2.3-3.86-2.25-1.81-1.06-3.53-2.06-1.61-.95-3.14-1.84-1.39-.82-2.67-1.56-1.14-.68-4.77-2.8-3.47-2.04-1.84-1.09-7.62-4.47-3.95-2.31-7.89-4.62-3.72-2.18-3.67-2.14-1.71-1-3.35-1.95-1.51-.88-4.94-2.88-3.65-2.14-1.96-1.14-4.01-2.35-2.09-1.22-4.23-2.47-2.15-1.26-8.67-5.08-4.16-2.44-4.12-2.42-1.95-1.14-3.82-2.25-1.75-1.03-11.12-6.53-7.73-4.53-3.71-2.17-3.68-2.15-1.74-1.02-3.42-2-1.57-.92-3.05-1.78-1.35-.78-2.56-1.5-1.07-.62-7.9-4.59-4.95-2.88-2.35-1.38-4.63-2.7-2.22-1.3-4.4-2.57-2.15-1.26-8.47-4.97-4.25-2.51-8.59-5.07-4.59-2.73-3.54-2.09-2.57-1.52-1.37-.8-5.62-3.31-2.9-1.7-5.8-3.4-2.73-1.59-2.68-1.56-1.25-.73-2.44-1.42-1.1-.64-6.69-3.9-4.38-2.57-1.99-1.17-1.95-1.16-.9-.53-1.73-1.03-.77-.46-1.45-.87-.61-.37-1.12-.68-.41-.25-10.49-6.26-3.43-1.97-1.64-.91-3.22-1.78-1.48-.79-2.86-1.52-1.26-.64-2.38-1.19-.97-.45-1.77-.79-.62-.23-1.03-.32m475.68 1.87.91.48 1.19 1.13.07.09.13.5.07.3.12 1.01.06.57.1 1.59.05.88.1 2.27.04 1.23.09 3.03.04 1.61.07 3.88.03 2.05.06 4.8.03 2.53.06 5.82.01 1.52.02 3.25.01 1.66.02 3.53.01 1.8.02 3.82.01 1.95.02 4.13.01 2.1.01 4.45.01 2.26.01 4.77.01 2.42.01 5.1.01 2.6.01 5.45v2.76l.01 5.81v2.95l.01 6.17.01 3.13v9.88l.01 6.94v10.85l.01 3.72v55.12l.01 10.4v5.1l.01 9.65v18.05l.01 8.24v4.04l-.01 7.58v10.66l-.01 3.4-.01 6.35-.01 3.1-.02 5.77-.01 2.82-.04 5.22-.01 2.55-.04 4.7-.03 2.3-.05 4.21-.03 2.05-.07 3.76-.03 1.83-.09 3.32-.04 1.61-.1 2.92-.05 1.42-.12 2.54-.06 1.23-.14 2.2-.07 1.06-.15 1.88-.09.91-.18 1.59-.09.76-.2 1.34-.21 1.27-.5 1.88-.26.85-.61 1.21-.32.55-.73.76-.38.36-.87.55-.45.27-1.01.57-1.7 1.12-.5.37-1.46 1-.81.55-2.01 1.3-1.06.68-2.47 1.56-1.28.8-2.84 1.74-1.46.9-3.13 1.89-1.59.96-3.32 1.98-3.35 2-6.92 4.06-3.44 2.01-6.56 3.77-1.59.91-2.99 1.68-1.45.82-2.66 1.47-1.28.71-2.23 1.21-1.06.56-1.74.89-.79.4-1.14.53-.95.32-.32-.01-1-.39-.52-.24-1.02-.69-.2-.15-.33-.85-.08-.3-.14-.85-.07-.47-.13-1.29-.06-.71-.1-1.83-.06-.99-.09-2.46-.05-1.33-.08-3.2-.04-1.7-.07-4.04-.03-2.13-.06-4.98-.01-1.3-.03-2.81-.01-1.43-.03-3.08-.01-1.57-.02-3.35-.02-1.71-.02-3.65-.01-1.86-.02-3.95-.01-2.02-.02-4.26-.01-2.18-.02-4.6-.01-2.34-.01-4.93-.01-2.52-.02-5.29-.01-2.69-.02-5.66v-2.88l-.02-6.04-.01-3.07-.02-6.43v-3.26l-.02-6.84-.03-10.72-.02-8.69-.06-16.74-.01-4.11-.04-8.02-.01-3.97-.04-7.69-.02-3.8-.04-7.32-.03-3.61-.04-6.9-.03-3.4-.04-6.44-.03-3.17-.05-5.94-.03-2.9-.05-5.4-.03-2.62-.05-4.81-.03-2.32-.06-4.17-.03-2-.06-3.49-.03-1.66-.05-2.77-.03-1.29-.06-2.01-.03-.9-.06-1.2-.09-.83-.24-.48-.75-.76-1.16-.51h-.24l-.86.22-.51.15-1.48.56-.83.33-2.23.96-1.22.54-3.09 1.41-.83.39-1.84.86-.95.44-2.1 1-1.09.51-2.36 1.13-1.22.59-2.66 1.28-1.36.65-2.96 1.43-1.51.74-3.27 1.59-1.68.81-3.59 1.76-5.78 2.82-2.39 1.17-4.4 2.12-2.13 1.03-3.9 1.85-1.89.89-3.4 1.56-1.63.75-2.9 1.29-1.38.61-2.39 1-1.13.47-1.88.72-.88.33-1.37.44-1.48.33-1.43.16-2.84-.27-.75-.13-1.68-.51-.88-.3-2.05-.88-1.08-.49-2.54-1.31-1.36-.72-3.2-1.81-1.69-.98-4-2.38-1.06-.63-2.28-1.38-3.72-2.27-2.06-1.26-3.79-2.32-1.84-1.13-3.34-2.07-1.62-1.01-2.94-1.83-1.41-.89-2.54-1.62-1.22-.78-2.17-1.42-1.04-.68-1.83-1.24-.87-.6-1.5-1.08-.71-.52-1.2-.93-.57-.45-.92-.81-.43-.39-.67-.71-.62-.68-.56-1.12-.19-.53.15-.94.81-1.37.07-.08.38-.29.23-.17.75-.49.43-.27 1.18-.73.65-.39 1.68-.98.91-.53 2.23-1.29 1.19-.68 2.84-1.61 1.51-.86 3.51-1.98 1.85-1.04 4.25-2.38 2.22-1.24 5.04-2.81 2.63-1.47 5.89-3.28 1.53-.85 3.23-1.79 1.65-.91 3.46-1.92 1.76-.98 3.7-2.05 1.89-1.05 3.95-2.19 2.01-1.11 4.21-2.33 2.13-1.18 4.48-2.48 2.26-1.25 4.75-2.63 2.4-1.33 5.03-2.78 2.54-1.4 5.31-2.94 2.69-1.49 5.6-3.09 2.84-1.57 5.9-3.26 9.2-5.08 2.3-1.28 4.86-2.68 2.45-1.36 5.05-2.79 5.08-2.81 10.09-5.6 2.47-1.37 4.74-2.63 2.32-1.29L439.7 72l2.11-1.17 3.79-2.11 4.9-2.73 2.13-1.18 3.89-2.17 1.89-1.05 3.44-1.9 1.67-.92 3.01-1.65 1.46-.8 2.63-1.41 1.27-.68 2.27-1.19 1.09-.56 1.94-.98.93-.46 1.64-.77.79-.37 1.38-.58.66-.28 1.14-.41.55-.19.94-.25.89-.21h1.32M485.71 50l-1.26.28-.63.23-.4.16-.84.37-.52.23-1.09.51-.65.32-1.38.68-.8.41-1.69.87-.98.51-2.04 1.08-1.16.62-2.43 1.29-1.37.74-2.85 1.54-1.59.87-3.3 1.8-1.83 1-3.79 2.08-2.09 1.15-4.32 2.38-2.36 1.3-4.87 2.7-2.66 1.47-5.46 3.02-2.97 1.65-6.09 3.37-3.29 1.83-5.96 3.31-4.22 2.34-2.19 1.21-8.93 4.94-4.44 2.45-4.41 2.43-2.14 1.18-4.21 2.32-1.98 1.1-3.88 2.13-1.76.97-3.4 1.87-1.48.81-9.06 4.99-6 3.32-2.77 1.54-2.71 1.51-1.25.71-2.44 1.36-1.08.61-2.07 1.17-.87.49-1.63.93-.62.36-4.2 2.4-3.17 1.77-1.63.9-3.26 1.8-1.54.83-2.96 1.6-1.24.66-5.88 3.15-4.47 2.45-2.39 1.33-9.91 5.55-4.77 2.73-4.68 2.68-2.13 1.24-4.08 2.38-1.7 1.01-1.64.98-.72.43-1.35.82-.55.35-1.03.64-.37.25-.66.45-.17.13-2.5 1.98 2.58 2.3.89.68.92.66.61.41 1.31.88.79.51 1.64 1.07.93.6 3.98 2.52 2.27 1.41 4.7 2.9 2.46 1.49 7.43 4.5 4.82 2.94 2.17 1.32 2.12 1.3.96.59 1.86 1.15.82.5 1.54.96.63.39 1.16.72.41.26 5.62 3.06 1.92.87.87.35 1.65.61.65.17 2.8.63 1.54.1.82-.13 1.73-.41 1.16-.43 1.24-.48.73-.3 1.56-.65.92-.39 2.16-.96 1.95-.9 1.2-.56 2.55-1.19 1.46-.69 3.03-1.44 1.67-.79 3.43-1.64 1.82-.88 3.71-1.79 1.94-.94 7.88-3.83 3.99-1.96 11.43-5.59 3.51-1.7 1.62-.78 3.15-1.52 1.42-.68 2.71-1.29 1.16-.55 2.19-1.03.87-.41 1.57-.72.54-.24.88-.38.15-.04 2.14-.04 1.35.65.68.68.64.98.18.54.08.4.16.88.07.6.14 1.33.06.88.11 1.9.05 1.2.1 2.59.04 1.59.09 3.39.03 2.04.07 4.31.04 2.55.03 2.61.01 1.42.03 2.89.01 1.56.03 3.18.01 1.71.02 3.5.01 1.87.02 3.82.02 2.04.02 4.16.01 2.21.02 4.51.01 2.4.01 4.88.01 2.58.02 5.27.01 2.78.02 5.66.01 2.99.02 6.08v3.2l.02 6.5.01 3.42.02 6.95.01 3.64.02 7.41.01 3.88.08 25.4.04 8.15.01 3.97.04 7.84.02 3.79.04 7.49.03 3.6.04 7.1.02 3.38.05 6.66.02 3.14.05 6.18.03 2.89.05 5.64.03 2.62.05 5.07.03 2.31.06 4.46.02 1.99.06 3.81.03 1.64.06 3.1.02 1.28.06 2.35.03.89.06 1.57.02.48.06.74.03.04.61.66.44.22.94.37h.44l1.15-.34 1.28-.56.87-.42 1.89-.94 1.14-.6 2.39-1.26 1.36-.74 2.81-1.54 1.53-.85 3.14-1.77 1.66-.94 6.85-3.93 3.55-2.08 7.13-4.21 3.42-2.06 3.38-2.05 1.61-.99 3.15-1.94 1.45-.91 2.83-1.78 1.26-.81 2.41-1.57 1.02-.69 1.91-1.3.73-.53 1.31-.98.4-.35 4.13-3.63.29-165.87.03-16.9.01-11.06.01-5.4.01-10.71v-5.21l.01-10.31v-33.36l-.01-8.76v-4.15l-.01-8.13-.01-3.81-.01-7.44-.01-3.44-.02-6.7-.01-3.05-.02-5.89-.01-2.62-.02-5.04-.02-2.17-.02-4.11-.02-1.69-.03-3.14-.01-1.18-.02-1.12-.01-.46-.02-.85v-.32l-.02-.58-.01-.18-.02-.29-.01-.04-.98-1.69-1.08-.56Z"/>
        <path fill="rgba(253,253,253,1)" d="m322.67 484.33-.03-.02-.04-.47-.02-.31-.05-1.02-.02-.58-.04-1.54-.02-.83-.04-2.02-.02-1.08-.04-2.48-.02-1.3-.04-2.92-.01-1.51-.04-3.33-.01-1.7-.03-3.7-.02-1.89-.03-4.05-.01-2.06-.03-4.36-.01-2.22-.02-4.65-.01-2.36-.02-4.91-.01-4.97-.03-10.6-.01-16.66v-22.67l-.01-3.95v-3.88l-.01-6.99v-3.37l-.02-6.03-.01-2.9-.02-5.14-.02-2.47-.03-4.33-.02-2.07-.04-3.6-.03-1.72-.06-2.94-.03-1.4-.07-2.36-.04-1.12-.09-1.86-.05-.88-.11-1.44-.06-.67-.13-1.09-.14-1.01-.34-1.31-.63-1.5-.41-.82-.75-1.38-.41-.68-1.12-1.35-.33-.35-.82-.76-.44-.39-1.1-.87-.59-.46-1.44-1.03-.77-.54-1.86-1.23-.98-.65-2.34-1.48-1.24-.77-2.88-1.78-1.52-.92-3.49-2.11-1.84-1.09-4.17-2.49-2.19-1.29-4.92-2.91-2.57-1.51-5.74-3.37-2.98-1.75-6.63-3.88-1.72-1.01-3.6-2.11-5.69-3.33-2.87-1.68-6.27-3.67-3.21-1.88-6.85-4.01-3.49-2.04-7.31-4.28-3.7-2.16-7.65-4.47-7.71-4.51-15.92-9.31-7.96-4.65-15.7-9.17-3.87-2.26-7.52-4.39-3.71-2.18-7.14-4.16-3.51-2.05-6.62-3.86-3.24-1.89-5.99-3.5-2.9-1.69-5.24-3.06-1.26-.73-2.35-1.37-1.15-.67-2.12-1.24-1.03-.6-1.88-1.09-.91-.53-1.62-.94-.77-.45-1.34-.78-1.69-.98-.76-.44-1.78-1.05-.92-.54-1.93-1.15-.96-.58-1.84-1.12-2.42-1.48-1.41-.87-2.79-1.37-.65-.29-1.09-.39-1.19-.25h-.61l-.99.07-.23.06-.42.27-.19.17-.36.58-.17.34-.3 1-.14.56-.25 1.53-.12.84-.21 2.17-.1 1.17-.17 2.92-.09 1.57-.14 3.78-.06 2-.12 4.76-.03 1.25-.05 2.71-.03 1.39-.04 2.99-.03 1.53-.04 3.29-.02 1.68-.04 3.59-.02 1.84-.04 3.91-.02 2-.04 4.26-.02 2.17-.03 4.6-.02 2.35-.04 4.96-.02 2.53-.03 5.35-.02 2.72-.04 5.74-.02 2.92-.04 6.14-.07 9.68-.04 6.74-.1 12.76-.04 6.26-.09 11.83-.04 5.79-.09 10.91-.05 5.34-.09 9.99-.04 4.89-.09 9.11-.04 4.44-.09 8.23-.04 4-.09 7.37-.04 3.58-.09 6.52-.04 3.15-.09 5.69-.05 2.74-.08 4.87-.05 2.34-.09 4.07-.04 1.93-.09 3.28-.05 1.54-.09 2.51-.05 1.16-.09 1.75-.05.78-.09 1-.15.69-.1.1-.48-.02-.29-.05-.92-.36-.52-.22-1.42-.74-.79-.41-2-1.16-1.08-.63-2.64-1.61-1.42-.87-3.36-2.11-1.78-1.13-4.15-2.65-1.09-.7-2.34-1.51-3.76-2.43-1.69-1.09-3.16-2.06-1.54-1.01-2.88-1.89-1.41-.92-2.61-1.73-1.27-.85-2.35-1.58-1.15-.77-2.11-1.45-1.02-.7-1.88-1.31-1.82-1.28-2.99-2.21-1.4-1.05-2.22-1.8-1.02-.85-1.53-1.47-.7-.69-.95-1.2-.88-1.59-.02-.05-.04-.35-.03-.2-.04-.64-.02-.35-.04-.91-.03-.49-.04-1.19-.04-1.25-.09-3.28-.04-1.76-.08-4.24-.04-2.24-.08-5.13-.04-2.68-.08-5.95-.04-3.07-.08-6.7-.03-3.43-.08-7.37-.03-3.76-.07-7.96-.04-4.05-.06-8.48-.04-4.3-.06-8.93-.03-4.52-.06-9.3-.03-4.7-.05-9.6-.03-4.83-.05-9.83-.05-9.87-.08-20.1-.04-10.06-.06-20.04-.03-9.95-.04-19.38-.01-4.78-.01-9.33v-30.72l.01-8 .01-3.93.02-7.41.01-3.62.03-6.75.01-3.28.04-6.01.01-2.91.05-5.19.02-2.49.05-4.31.03-2.04.06-3.34.03-1.55.07-2.31.02-.51.04-.82.06-.9.08-.89.16-1.55.08-.74.16-1.26.16-1.19.35-1.61.19-.7.45-.81.85-.55.19-.04 1.03.32.62.23 1.77.79.97.45 2.38 1.19 1.26.64 2.86 1.52 1.48.79 3.22 1.78 1.64.91 3.43 1.97 10.49 6.26.41.25 1.12.68.61.37 1.45.87.77.46 1.73 1.03.9.53 1.95 1.16 1.99 1.17 4.38 2.57 6.69 3.9 1.1.64 2.44 1.42 1.25.73 2.68 1.56 2.73 1.59 5.8 3.4 2.9 1.7 5.62 3.31 1.37.8 2.57 1.52 3.54 2.09 4.59 2.73 8.59 5.07 4.25 2.51 8.47 4.97 2.15 1.26 4.4 2.57 2.22 1.3 4.63 2.7 2.35 1.38 4.95 2.88 7.9 4.59 1.07.62 2.56 1.5 1.35.78 3.05 1.78 1.57.92 3.42 2 1.74 1.02 3.68 2.15 3.71 2.17 7.73 4.53 11.12 6.53 1.75 1.03 3.82 2.25 1.95 1.14 4.12 2.42 4.16 2.44 8.67 5.08 2.15 1.26 4.23 2.47 2.09 1.22 4.01 2.35 1.96 1.14 3.65 2.14 4.94 2.88 1.51.88 3.35 1.95 1.71 1 3.67 2.14 3.72 2.18 7.89 4.62 3.95 2.31 7.62 4.47 1.84 1.09 3.47 2.04 4.77 2.8 1.14.68 2.67 1.56 1.39.82 3.14 1.84 1.61.95 3.53 2.06 1.81 1.06 3.86 2.25 3.92 2.3 8.54 4.98 4.34 2.53 8.95 5.21 4.48 2.61 8.82 5.13 4.35 2.52 8.14 4.73 1.97 1.14 3.71 2.15 1.81 1.05 3.36 1.94 1.63.94 2.92 1.69 3.84 2.21.75.43 1.7 1.1.87.58 1.78 1.29.89.65 1.65 1.32 2.11 1.83 4.32 4.08v177.93l-3.75 3.53-.52.49-1.41 1.16-.75.6-1.73 1.28-5.34 3.53-.41.24-1.12.66-.6.36-1.46.87-.76.46-1.73 1.04-.89.54-1.94 1.17-1.99 1.2-4.37 2.65-6.65 4.05-1.94 1.19-3.66 2.2-1.79 1.08-3.34 1.96-1.63.95-2.98 1.71-1.44.82-2.57 1.43-1.24.68-2.14 1.13-1.01.52-1.65.81-.77.36-1.14.46-1.08.28h-.48m-113.31-10.12-3.68-2.11-6.66-3.85-3.22-1.86-5.75-3.35-2.77-1.61-4.85-2.87-2.32-1.37-3.98-2.4-1.88-1.14-3.13-1.93-1.45-.92-2.29-1.49-1.04-.68-1.47-1.06-1.3-1.1-.38-.42-.59-1.18-.28-.68-.44-2.01-.11-.58-.19-1.37-.1-.72-.18-1.72-.09-.91-.18-2.11-.27-3.66-.03-.41-.06-1.26-.02-.69-.05-1.8-.02-.96-.04-2.29-.02-1.21-.04-2.76-.01-1.43-.03-3.19-.02-1.64-.02-3.57-.01-1.84-.02-3.92-.01-2-.01-4.23-.01-4.31-.01-9.39v-4.8l.01-10.14.01-5.14.03-10.6.02-5.33.04-10.75.03-5.36.06-10.6.03-5.25.07-10.15.04-4.98.08-9.39.03-2.28.04-4.38.03-2.15.05-4.09.02-2 .05-3.75.03-1.83.05-3.38.03-1.65.05-2.97.03-1.43.06-2.54.03-1.2.05-2.05.03-.96.06-1.53.03-.69.07-.97.09-.79.11-.4.39-.58.23-.25.65-.27.36-.09.99.06.53.08 1.38.42.75.26 1.83.8.99.45 2.36 1.21 1.25.65 2.95 1.63 5.16 2.94 1.02.59 2.25 1.3 1.15.67 2.44 1.41 2.48 1.42 5.18 2.99 2.57 1.48 4.93 2.83 1.19.68 2.21 1.27 3.02 1.73 1.09.62 1.98 1.14.96.55 1.76 1.02 1.7 1 2.76 1.7 1.29.81 2.03 1.41.94.69 1.43 1.25.65.62.96 1.2.43.61.6 1.28.27.65.37 1.47.44 2.54.03.21.05.87.03.5.06 1.46.02.8.06 2.01.02 1.07.06 2.53.02 1.32.05 3.02.02 1.57.05 3.47.02 1.79.04 3.89.02 2 .04 4.28.02 2.18.04 4.64.01 2.36.04 4.96.01 2.52.03 5.25.01 2.66.02 5.5.02 5.57.03 11.76.02 18.32v26.54l-.01 4.59v6.53l-.01 2.1v3.96l-.01 1.94-.01 3.66v1.8l-.02 3.37-.01 1.66-.01 3.1-.01 1.52-.03 2.84-.02 2.77-.06 4.81-.04 2.29-.08 3.91-.05 1.85-.12 3.11-.06 1.46-.15 2.39-.07 1.11-.19 1.77-.09.81-.23 1.24-.11.57-.27.8-.14.36-.32.46-.16.2-.37.22-1.31.16h-.08l-.49-.19-.29-.12-.87-.41-.48-.23-1.2-.61-.63-.33-1.49-.79-1.56-.83-3.76-2.07-1.97-1.09m205.59-52.58-.03-.04-.06-.74-.02-.48-.06-1.57-.03-.89-.06-2.35-.02-1.28-.06-3.1-.03-1.64-.06-3.81-.02-1.99-.06-4.46-.03-2.31-.05-5.07-.03-2.62-.05-5.64-.03-2.89-.05-6.18-.02-3.14-.05-6.66-.02-3.38-.04-7.1-.03-3.6-.04-7.49-.02-3.79-.04-7.84-.01-3.97-.04-8.15-.08-25.4-.01-3.88-.02-7.41-.01-3.64-.02-6.95-.01-3.42-.02-6.5v-3.2l-.02-6.08-.01-2.99-.02-5.66-.01-2.78-.02-5.27-.01-2.58-.01-4.88-.01-2.4-.02-4.51-.01-2.21-.02-4.16-.02-2.04-.02-3.82-.01-1.87-.02-3.5-.01-1.71-.03-3.18-.01-1.56-.03-2.89-.01-1.42-.03-2.61-.04-2.55-.07-4.31-.03-2.04-.09-3.39-.04-1.59-.1-2.59-.05-1.2-.11-1.9-.06-.88-.14-1.33-.07-.6-.16-.88-.08-.4-.18-.54-.64-.98-.68-.68-1.35-.65-2.14.04-.15.04-.88.38-.54.24-1.57.72-.87.41-2.19 1.03-1.16.55-2.71 1.29-1.42.68-3.15 1.52-1.62.78-3.51 1.7-11.43 5.59-3.99 1.96-7.88 3.83-1.94.94-3.71 1.79-1.82.88-3.43 1.64-1.67.79-3.03 1.44-1.46.69-2.55 1.19-1.2.56-1.95.9-2.16.96-.92.39-1.56.65-.73.3-1.24.48-1.16.43-1.73.41-.82.13-1.54-.1-2.8-.63-.65-.17-1.65-.61-.87-.35-1.92-.87-5.62-3.06-.41-.26-1.16-.72-.63-.39-1.54-.96-.82-.5-1.86-1.15-.96-.59-2.12-1.3-2.17-1.32-4.82-2.94-7.43-4.5-2.46-1.49-4.7-2.9-2.27-1.41-3.98-2.52-.93-.6-1.64-1.07-.79-.51-1.31-.88-.61-.41-.92-.66-.89-.68-2.58-2.3 2.5-1.98.17-.13.66-.45.37-.25 1.03-.64.55-.35 1.35-.82.72-.43 1.64-.98 1.7-1.01 4.08-2.38 2.13-1.24 4.68-2.68 4.77-2.73 9.91-5.55 2.39-1.33 4.47-2.45 5.88-3.15 1.24-.66 2.96-1.6 1.54-.83 3.26-1.8 1.63-.9 3.17-1.77 4.2-2.4.62-.36 1.63-.93.87-.49 2.07-1.17 1.08-.61 2.44-1.36 1.25-.71 2.71-1.51 2.77-1.54 6-3.32 9.06-4.99 1.48-.81 3.4-1.87 1.76-.97 3.88-2.13 1.98-1.1 4.21-2.32 2.14-1.18 4.41-2.43 4.44-2.45 8.93-4.94 2.19-1.21 4.22-2.34 5.96-3.31 3.29-1.83 6.09-3.37 2.97-1.65 5.46-3.02 2.66-1.47 4.87-2.7 2.36-1.3 4.32-2.38 2.09-1.15 3.79-2.08 1.83-1 3.3-1.8 1.59-.87 2.85-1.54 1.37-.74 2.43-1.29 1.16-.62 2.04-1.08.98-.51 1.69-.87.8-.41 1.38-.68.65-.32 1.09-.51.52-.23.84-.37.4-.16.63-.23 1.26-.28h.75l1.08.56.98 1.69.01.04.02.29.01.18.02.58v.32l.02.85.01.46.02 1.12.01 1.18.03 3.14.02 1.69.02 4.11.02 2.17.02 5.04.01 2.62.02 5.89.01 3.05.02 6.7.01 3.44.01 7.44.01 3.81.01 8.13v4.15l.01 8.76v33.36l-.01 10.31v5.21l-.01 10.71-.01 5.4-.01 11.06-.03 16.9-.29 165.87-4.13 3.63-.4.35-1.31.98-.73.53-1.91 1.3-1.02.69-2.41 1.57-1.26.81-2.83 1.78-1.45.91-3.15 1.94-1.61.99-3.38 2.05-3.42 2.06-7.13 4.21-3.55 2.08-6.85 3.93-1.66.94-3.14 1.77-1.53.85-2.81 1.54-1.36.74-2.39 1.26-1.14.6-1.89.94-.87.42-1.28.56-1.15.34h-.44l-.94-.37-.44-.22Z"/>
    </g>
</svg>
